<?xml version="1.0" encoding="UTF-8"?>
<svg xmlns="http://www.w3.org/2000/svg" viewBox="0 0 440 110" width="440" height="110">

  <g transform="translate(56, 53)">
    <g transform="translate(-14, 4)">
      <polygon points="0,-36 -31,-18 -31,18 0,36 31,18 31,-18" fill="none" stroke="#1E3A34" stroke-width="1.4"></polygon>
      <line x1="0" y1="-36" x2="0" y2="0" stroke="#1E3A34" stroke-width="0.7" opacity="0.35"></line>
      <line x1="-31" y1="18" x2="0" y2="0" stroke="#1E3A34" stroke-width="0.7" opacity="0.35"></line>
      <line x1="31" y1="18" x2="0" y2="0" stroke="#1E3A34" stroke-width="0.7" opacity="0.35"></line>
    </g>
    <g transform="translate(14, -4)">
      <polygon points="0,-36 -31,-18 0,0 31,-18" fill="#4EA68D" fill-opacity="0.1"></polygon>
      <polygon points="-31,-18 -31,18 0,36 0,0" fill="#4EA68D" fill-opacity="0.07"></polygon>
      <polygon points="0,0 0,36 31,18 31,-18" fill="#4EA68D" fill-opacity="0.13"></polygon>
      <polygon points="0,-36 -31,-18 -31,18 0,36 31,18 31,-18" fill="none" stroke="#4EA68D" stroke-width="1.4"></polygon>
      <line x1="0" y1="-36" x2="0" y2="0" stroke="#4EA68D" stroke-width="0.7" opacity="0.4"></line>
      <line x1="-31" y1="18" x2="0" y2="0" stroke="#4EA68D" stroke-width="0.7" opacity="0.4"></line>
      <line x1="31" y1="18" x2="0" y2="0" stroke="#4EA68D" stroke-width="0.7" opacity="0.4"></line>
    </g>
  </g>

  <line x1="110" y1="25" x2="110" y2="81" stroke="#1E3A34" stroke-width="0.5" opacity="0.15"></line>

  <text x="130" y="67" text-anchor="start" font-family="&#39;Cedora&#39;, &#39;Varela Round&#39;, &#39;Nunito Sans&#39;, &#39;Helvetica Neue&#39;, Arial, sans-serif" font-weight="700" font-size="36" letter-spacing="4px" fill="#1E3A34">Repave</text>

</svg>