<?xml version="1.0" encoding="UTF-8"?>
<svg xmlns="http://www.w3.org/2000/svg" viewBox="0 0 400 340" width="400" height="340">

  <g transform="translate(200, 120)">
    <g transform="translate(-22, 6)">
      <polygon points="0,-64 -55,-32 -55,32 0,64 55,32 55,-32" fill="none" stroke="#1E3A34" stroke-width="1.8"></polygon>
      <line x1="0" y1="-64" x2="0" y2="0" stroke="#1E3A34" stroke-width="1" opacity="0.3"></line>
      <line x1="-55" y1="32" x2="0" y2="0" stroke="#1E3A34" stroke-width="1" opacity="0.3"></line>
      <line x1="55" y1="32" x2="0" y2="0" stroke="#1E3A34" stroke-width="1" opacity="0.3"></line>
    </g>
    <g transform="translate(22, -6)">
      <polygon points="0,-64 -55,-32 0,0 55,-32" fill="#1E3A34" fill-opacity="0.06"></polygon>
      <polygon points="-55,-32 -55,32 0,64 0,0" fill="#1E3A34" fill-opacity="0.04"></polygon>
      <polygon points="0,0 0,64 55,32 55,-32" fill="#1E3A34" fill-opacity="0.08"></polygon>
      <polygon points="0,-64 -55,-32 -55,32 0,64 55,32 55,-32" fill="none" stroke="#1E3A34" stroke-width="1.8"></polygon>
      <line x1="0" y1="-64" x2="0" y2="0" stroke="#1E3A34" stroke-width="1" opacity="0.35"></line>
      <line x1="-55" y1="32" x2="0" y2="0" stroke="#1E3A34" stroke-width="1" opacity="0.35"></line>
      <line x1="55" y1="32" x2="0" y2="0" stroke="#1E3A34" stroke-width="1" opacity="0.35"></line>
    </g>
  </g>

  <text x="200" y="265" text-anchor="middle" font-family="&#39;Cedora&#39;, &#39;Varela Round&#39;, &#39;Nunito Sans&#39;, &#39;Helvetica Neue&#39;, Arial, sans-serif" font-weight="700" font-size="44" letter-spacing="5px" fill="#1E3A34">Repave</text>

</svg>