<?xml version="1.0" encoding="UTF-8"?>
<svg xmlns="http://www.w3.org/2000/svg" viewBox="28 28 144 144" width="200" height="200">
  <g transform="translate(100, 100)">
    <g transform="translate(-18, 5)">
      <polygon points="0,-52 -45,-26 -45,26 0,52 45,26 45,-26" fill="none" stroke="#1E3A34" stroke-width="1.6"/>
      <line x1="0" y1="-52" x2="0" y2="0" stroke="#1E3A34" stroke-width="0.9" opacity="0.35"/>
      <line x1="-45" y1="26" x2="0" y2="0" stroke="#1E3A34" stroke-width="0.9" opacity="0.35"/>
      <line x1="45" y1="26" x2="0" y2="0" stroke="#1E3A34" stroke-width="0.9" opacity="0.35"/>
    </g>
    <g transform="translate(18, -5)">
      <polygon points="0,-52 -45,-26 0,0 45,-26" fill="#4EA68D" fill-opacity="0.1"/>
      <polygon points="-45,-26 -45,26 0,52 0,0" fill="#4EA68D" fill-opacity="0.07"/>
      <polygon points="0,0 0,52 45,26 45,-26" fill="#4EA68D" fill-opacity="0.13"/>
      <polygon points="0,-52 -45,-26 -45,26 0,52 45,26 45,-26" fill="none" stroke="#4EA68D" stroke-width="1.6"/>
      <line x1="0" y1="-52" x2="0" y2="0" stroke="#4EA68D" stroke-width="0.9" opacity="0.4"/>
      <line x1="-45" y1="26" x2="0" y2="0" stroke="#4EA68D" stroke-width="0.9" opacity="0.4"/>
      <line x1="45" y1="26" x2="0" y2="0" stroke="#4EA68D" stroke-width="0.9" opacity="0.4"/>
    </g>
  </g>
</svg>
